<svg width="32" height="32" viewBox="0 0 32 32" fill="none" xmlns="http://www.w3.org/2000/svg">
<path opacity="0.2" d="M5.27933 5.37331C5.13029 5.32984 4.97318 5.32167 4.82044 5.34944C4.6677 5.37721 4.52352 5.44017 4.39933 5.53331C4.27513 5.62646 4.17433 5.74724 4.1049 5.8861C4.03547 6.02495 3.99933 6.17807 3.99933 6.33331V23.6666C3.99933 23.8219 4.03547 23.975 4.1049 24.1139C4.17433 24.2527 4.27513 24.3735 4.39933 24.4666C4.52352 24.5598 4.6677 24.6227 4.82044 24.6505C4.97318 24.6783 5.13029 24.6701 5.27933 24.6266L17.0001 21.2081V8.79185L5.27933 5.37331Z" fill="#FF6636" fill-opacity="0.74"/>
<path d="M3.99933 6.33331V23.6666C3.99933 23.8219 4.03547 23.975 4.1049 24.1139C4.17433 24.2527 4.27513 24.3735 4.39933 24.4666C4.52352 24.5598 4.6677 24.6227 4.82044 24.6505C4.97318 24.6783 5.13029 24.6701 5.27933 24.6266L27.2793 18.21C27.487 18.1494 27.6695 18.0231 27.7993 17.85C27.9291 17.6769 27.9993 17.4663 27.9993 17.25V12.75C27.9993 12.5336 27.9291 12.3231 27.7993 12.15C27.6695 11.9769 27.487 11.8506 27.2793 11.79L5.27933 5.37331C5.13029 5.32984 4.97318 5.32167 4.82044 5.34944C4.6677 5.37721 4.52352 5.44017 4.39933 5.53331C4.27513 5.62646 4.17433 5.74724 4.1049 5.8861C4.03547 6.02495 3.99933 6.17807 3.99933 6.33331V6.33331Z" stroke="#FF6636" stroke-opacity="0.74" stroke-width="2" stroke-linecap="round" stroke-linejoin="round"/>
<path d="M23 19.4581V24C23 24.2652 22.8946 24.5196 22.7071 24.7071C22.5196 24.8946 22.2652 25 22 25H18C17.7348 25 17.4804 24.8946 17.2929 24.7071C17.1054 24.5196 17 24.2652 17 24V8.79187" stroke="#FF6636" stroke-opacity="0.74" stroke-width="2" stroke-linecap="round" stroke-linejoin="round"/>
</svg>
