<svg width="18" height="18" viewBox="0 0 18 18" fill="none" xmlns="http://www.w3.org/2000/svg">
<path d="M1.90893 17.8646C1.38398 17.8646 0.93458 17.6791 0.560736 17.3081C0.186912 16.937 0 16.491 0 15.9699C0 15.4489 0.186912 15.0029 0.560736 14.6318C0.93458 14.2608 1.38398 14.0752 1.90893 14.0752C2.43388 14.0752 2.88327 14.2608 3.25712 14.6318C3.63094 15.0029 3.81785 15.4489 3.81785 15.9699C3.81785 16.491 3.63094 16.937 3.25712 17.3081C2.88327 17.6791 2.43388 17.8646 1.90893 17.8646ZM1.90893 10.827C1.38398 10.827 0.93458 10.6415 0.560736 10.2705C0.186912 9.89941 0 9.45336 0 8.93232C0 8.41128 0.186912 7.96524 0.560736 7.59418C0.93458 7.22314 1.38398 7.03762 1.90893 7.03762C2.43388 7.03762 2.88327 7.22314 3.25712 7.59418C3.63094 7.96524 3.81785 8.41128 3.81785 8.93232C3.81785 9.45336 3.63094 9.89941 3.25712 10.2705C2.88327 10.6415 2.43388 10.827 1.90893 10.827ZM1.90893 3.78941C1.38398 3.78941 0.93458 3.60389 0.560736 3.23285C0.186912 2.86179 0 2.41574 0 1.8947C0 1.37367 0.186912 0.927618 0.560736 0.55656C0.93458 0.185521 1.38398 0 1.90893 0C2.43388 0 2.88327 0.185521 3.25712 0.55656C3.63094 0.927618 3.81785 1.37367 3.81785 1.8947C3.81785 2.41574 3.63094 2.86179 3.25712 3.23285C2.88327 3.60389 2.43388 3.78941 1.90893 3.78941ZM8.99536 10.827C8.46929 10.827 8.02028 10.6415 7.64835 10.2705C7.27642 9.89941 7.09045 9.45336 7.09045 8.93232C7.09045 8.41128 7.27736 7.96524 7.65119 7.59418C8.02503 7.22314 8.47443 7.03762 8.99938 7.03762C9.52433 7.03762 9.97372 7.22314 10.3476 7.59418C10.7214 7.96524 10.9083 8.41128 10.9083 8.93232L8.99536 10.827ZM8.99938 3.78941C8.47443 3.78941 8.02503 3.60389 7.65119 3.23285C7.27736 2.86179 7.09045 2.41574 7.09045 1.8947C7.09045 1.37367 7.27736 0.927618 7.65119 0.55656C8.02503 0.185521 8.47443 0 8.99938 0C9.52433 0 9.97372 0.185521 10.3476 0.55656C10.7214 0.927618 10.9083 1.37367 10.9083 1.8947C10.9083 2.41574 10.7214 2.86179 10.3476 3.23285C9.97372 3.60389 9.52433 3.78941 8.99938 3.78941ZM7.81764 18V16.1278L14.4218 9.57292L16.308 11.4451L9.70384 18H7.81764ZM16.0898 3.78941C15.5649 3.78941 15.1155 3.60389 14.7416 3.23285C14.3678 2.86179 14.1809 2.41574 14.1809 1.8947C14.1809 1.37367 14.3678 0.927618 14.7416 0.55656C15.1155 0.185521 15.5649 0 16.0898 0C16.6148 0 17.0642 0.185521 17.438 0.55656C17.8118 0.927618 17.9988 1.37367 17.9988 1.8947C17.9988 2.41574 17.8118 2.86179 17.438 3.23285C17.0642 3.60389 16.6148 3.78941 16.0898 3.78941ZM17.0329 10.7368L15.1354 8.85338L15.8558 8.14962C16.0315 7.97519 16.2364 7.88797 16.4705 7.88797C16.7045 7.88797 16.8996 7.97519 17.0556 8.14962L17.742 8.83083C17.9177 8.9857 18.0037 9.1793 17.9999 9.41164C17.9961 9.64396 17.9101 9.84734 17.742 10.0218L17.0329 10.7368Z" fill="#8C94A3" fill-opacity="0.72"/>
</svg>
