<svg width="32" height="32" viewBox="0 0 32 32" fill="none" xmlns="http://www.w3.org/2000/svg">
<rect width="32" height="32" rx="16" fill="#FF6636"/>
<path opacity="0.2" d="M19.5007 13H10.5007C10.2246 13 10.0007 13.2239 10.0007 13.5V20.5C10.0007 20.7761 10.2246 21 10.5007 21H19.5007C19.7769 21 20.0007 20.7761 20.0007 20.5V13.5C20.0007 13.2239 19.7769 13 19.5007 13Z" fill="white"/>
<path d="M19.5007 13H10.5007C10.2246 13 10.0007 13.2239 10.0007 13.5V20.5C10.0007 20.7761 10.2246 21 10.5007 21H19.5007C19.7769 21 20.0007 20.7761 20.0007 20.5V13.5C20.0007 13.2239 19.7769 13 19.5007 13Z" fill="white"/>
<path d="M12.0007 11H21.5007C21.6333 11 21.7605 11.0527 21.8543 11.1464C21.9481 11.2402 22.0007 11.3674 22.0007 11.5V19" stroke="white" stroke-width="1.2" stroke-linecap="round" stroke-linejoin="round"/>
</svg>
