<svg width="183" height="29" viewBox="0 0 183 29" fill="none" xmlns="http://www.w3.org/2000/svg">
<path d="M0.639773 28V1.23636H18.0466V5.30057H5.48807V12.5665H17.1449V16.6307H5.48807V23.9358H18.1511V28H0.639773ZM29.1287 28.3528C27.5518 28.3528 26.1404 27.9477 24.8946 27.1375C23.6487 26.3273 22.6643 25.1511 21.9412 23.6091C21.2181 22.067 20.8565 20.1939 20.8565 17.9898C20.8565 15.7595 21.2224 13.8777 21.9542 12.3443C22.6948 10.8023 23.6923 9.6392 24.9469 8.85511C26.2014 8.06231 27.5997 7.66591 29.1417 7.66591C30.3179 7.66591 31.2849 7.86629 32.0429 8.26704C32.8008 8.65909 33.402 9.1339 33.8463 9.69148C34.2906 10.2403 34.6347 10.7587 34.8787 11.2466H35.0747V1.23636H39.8184V28H35.1662V24.8375H34.8787C34.6347 25.3254 34.2819 25.8437 33.8201 26.3926C33.3584 26.9328 32.7486 27.3945 31.9906 27.7778C31.2326 28.1612 30.2787 28.3528 29.1287 28.3528ZM30.4486 24.4716C31.4505 24.4716 32.3042 24.2015 33.0099 23.6614C33.7156 23.1125 34.2514 22.3502 34.6173 21.3744C34.9832 20.3987 35.1662 19.2617 35.1662 17.9636C35.1662 16.6655 34.9832 15.5373 34.6173 14.579C34.2601 13.6206 33.7287 12.8758 33.023 12.3443C32.326 11.8129 31.4679 11.5472 30.4486 11.5472C29.3944 11.5472 28.5145 11.8216 27.8088 12.3705C27.1031 12.9193 26.5717 13.6773 26.2145 14.6443C25.8573 15.6114 25.6787 16.7178 25.6787 17.9636C25.6787 19.2182 25.8573 20.3377 26.2145 21.3222C26.5804 22.2979 27.1162 23.0689 27.8219 23.6352C28.5362 24.1928 29.4118 24.4716 30.4486 24.4716ZM56.5492 19.558V7.92727H61.2799V28H56.693V24.4324H56.4839C56.0309 25.5562 55.286 26.4754 54.2492 27.1898C53.2212 27.9042 51.9536 28.2614 50.4464 28.2614C49.1309 28.2614 47.9678 27.9695 46.9572 27.3858C45.9553 26.7934 45.1712 25.9352 44.6049 24.8114C44.0386 23.6788 43.7555 22.311 43.7555 20.708V7.92727H48.4862V19.9761C48.4862 21.2481 48.8347 22.2587 49.5316 23.008C50.2286 23.7572 51.1434 24.1318 52.276 24.1318C52.9729 24.1318 53.6481 23.9619 54.3015 23.6222C54.9549 23.2824 55.4907 22.7771 55.9089 22.1063C56.3358 21.4267 56.5492 20.5773 56.5492 19.558Z" fill="white"/>
<path d="M87.2434 1.23636V28H82.9309L70.3201 9.76989H70.0979V28H65.2497V1.23636H69.5883L82.186 19.4795H82.4212V1.23636H87.2434ZM91.4222 28V1.23636H108.829V5.30057H96.2705V12.5665H107.927V16.6307H96.2705V23.9358H108.934V28H91.4222ZM116.722 1.23636L122.616 11.0375H122.825L128.745 1.23636H134.273L126.027 14.6182L134.404 28H128.784L122.825 18.2642H122.616L116.657 28H111.064L119.519 14.6182L111.168 1.23636H116.722ZM153.846 1.23636H158.694V18.7216C158.694 20.6383 158.241 22.3241 157.335 23.779C156.438 25.2339 155.175 26.3708 153.546 27.1898C151.916 28 150.013 28.4051 147.835 28.4051C145.648 28.4051 143.74 28 142.111 27.1898C140.482 26.3708 139.219 25.2339 138.321 23.779C137.424 22.3241 136.975 20.6383 136.975 18.7216V1.23636H141.823V18.3165C141.823 19.4316 142.067 20.4248 142.555 21.296C143.052 22.1672 143.749 22.8511 144.646 23.3477C145.544 23.8356 146.606 24.0795 147.835 24.0795C149.063 24.0795 150.126 23.8356 151.023 23.3477C151.93 22.8511 152.626 22.1672 153.114 21.296C153.602 20.4248 153.846 19.4316 153.846 18.3165V1.23636ZM177.405 8.59375C177.283 7.45246 176.769 6.56383 175.863 5.92784C174.966 5.29186 173.798 4.97386 172.361 4.97386C171.35 4.97386 170.483 5.12633 169.76 5.43125C169.037 5.73617 168.484 6.15 168.101 6.67273C167.717 7.19545 167.521 7.79224 167.512 8.46307C167.512 9.02064 167.639 9.50417 167.891 9.91364C168.153 10.3231 168.506 10.6716 168.95 10.9591C169.394 11.2379 169.887 11.4731 170.427 11.6648C170.967 11.8564 171.511 12.0176 172.06 12.1483L174.569 12.7756C175.58 13.0108 176.551 13.3288 177.483 13.7295C178.424 14.1303 179.265 14.6356 180.006 15.2455C180.755 15.8553 181.347 16.5915 181.783 17.454C182.219 18.3165 182.436 19.3271 182.436 20.4858C182.436 22.054 182.036 23.4348 181.234 24.6284C180.433 25.8133 179.274 26.7411 177.758 27.4119C176.251 28.0741 174.426 28.4051 172.282 28.4051C170.2 28.4051 168.392 28.0828 166.859 27.4381C165.334 26.7934 164.141 25.8525 163.278 24.6153C162.425 23.3782 161.963 21.871 161.893 20.0938H166.663C166.733 21.0259 167.02 21.8013 167.526 22.4199C168.031 23.0384 168.689 23.5002 169.499 23.8051C170.318 24.11 171.233 24.2625 172.243 24.2625C173.297 24.2625 174.221 24.1057 175.014 23.792C175.815 23.4697 176.442 23.0254 176.895 22.4591C177.348 21.8841 177.579 21.2133 177.588 20.4466C177.579 19.7496 177.375 19.1746 176.974 18.7216C176.573 18.2598 176.011 17.8765 175.288 17.5716C174.574 17.258 173.737 16.9792 172.779 16.7352L169.734 15.9511C167.53 15.3848 165.787 14.5267 164.507 13.3767C163.235 12.218 162.599 10.6803 162.599 8.76364C162.599 7.18674 163.026 5.80587 163.88 4.62102C164.742 3.43617 165.914 2.51705 167.395 1.86364C168.876 1.20151 170.553 0.870454 172.426 0.870454C174.325 0.870454 175.989 1.20151 177.418 1.86364C178.856 2.51705 179.984 3.42746 180.803 4.59489C181.622 5.7536 182.044 7.08655 182.07 8.59375H177.405Z" fill="#FF6636"/>
</svg>
