<svg width="162" height="40" viewBox="0 0 162 40" fill="none" xmlns="http://www.w3.org/2000/svg">
<path d="M2.29545 32V8.72727H17.4318V12.2614H6.51136V18.5795H16.6477V22.1136H6.51136V28.4659H17.5227V32H2.29545ZM27.0684 32.3068C25.6972 32.3068 24.4699 31.9545 23.3866 31.25C22.3033 30.5455 21.4472 29.5227 20.8184 28.1818C20.1896 26.8409 19.8752 25.2121 19.8752 23.2955C19.8752 21.3561 20.1934 19.7197 20.8298 18.3864C21.4737 17.0455 22.3411 16.0341 23.432 15.3523C24.523 14.6629 25.7389 14.3182 27.0798 14.3182C28.1025 14.3182 28.9434 14.4924 29.6025 14.8409C30.2616 15.1818 30.7843 15.5947 31.1707 16.0795C31.557 16.5568 31.8563 17.0076 32.0684 17.4318H32.2389V8.72727H36.3639V32H32.3184V29.25H32.0684C31.8563 29.6742 31.5495 30.125 31.148 30.6023C30.7464 31.072 30.2161 31.4735 29.557 31.8068C28.898 32.1402 28.0684 32.3068 27.0684 32.3068ZM28.2161 28.9318C29.0873 28.9318 29.8298 28.697 30.4434 28.2273C31.057 27.75 31.523 27.0871 31.8411 26.2386C32.1593 25.3902 32.3184 24.4015 32.3184 23.2727C32.3184 22.1439 32.1593 21.1629 31.8411 20.3295C31.5305 19.4962 31.0684 18.8485 30.4548 18.3864C29.8487 17.9242 29.1025 17.6932 28.2161 17.6932C27.2995 17.6932 26.5343 17.9318 25.9207 18.4091C25.307 18.8864 24.8449 19.5455 24.5343 20.3864C24.2237 21.2273 24.0684 22.1894 24.0684 23.2727C24.0684 24.3636 24.2237 25.3371 24.5343 26.1932C24.8525 27.0417 25.3184 27.7121 25.932 28.2045C26.5533 28.6894 27.3146 28.9318 28.2161 28.9318ZM50.9124 24.6591V14.5455H55.026V32H51.0374V28.8977H50.8556C50.4616 29.875 49.8139 30.6742 48.9124 31.2955C48.0184 31.9167 46.9162 32.2273 45.6056 32.2273C44.4616 32.2273 43.4503 31.9735 42.5715 31.4659C41.7003 30.9508 41.0184 30.2045 40.526 29.2273C40.0336 28.2424 39.7874 27.053 39.7874 25.6591V14.5455H43.901V25.0227C43.901 26.1288 44.2041 27.0076 44.8101 27.6591C45.4162 28.3106 46.2116 28.6364 47.1965 28.6364C47.8025 28.6364 48.3897 28.4886 48.9578 28.1932C49.526 27.8977 49.9919 27.4583 50.3556 26.875C50.7268 26.2841 50.9124 25.5455 50.9124 24.6591Z" fill="#1D2026"/>
<path d="M77.603 8.72727V32H73.853L62.887 16.1477H62.6939V32H58.478V8.72727H62.2507L73.2052 24.5909H73.4098V8.72727H77.603ZM81.2367 32V8.72727H96.3731V12.2614H85.4526V18.5795H95.589V22.1136H85.4526V28.4659H96.464V32H81.2367ZM103.237 8.72727L108.362 17.25H108.544L113.691 8.72727H118.498L111.328 20.3636L118.612 32H113.726L108.544 23.5341H108.362L103.18 32H98.3165L105.669 20.3636L98.4074 8.72727H103.237ZM135.518 8.72727H139.734V23.9318C139.734 25.5985 139.34 27.0644 138.552 28.3295C137.772 29.5947 136.674 30.5833 135.257 31.2955C133.84 32 132.185 32.3523 130.291 32.3523C128.39 32.3523 126.731 32 125.314 31.2955C123.897 30.5833 122.799 29.5947 122.018 28.3295C121.238 27.0644 120.848 25.5985 120.848 23.9318V8.72727H125.064V23.5795C125.064 24.5492 125.276 25.4129 125.7 26.1705C126.132 26.928 126.738 27.5227 127.518 27.9545C128.299 28.3788 129.223 28.5909 130.291 28.5909C131.359 28.5909 132.284 28.3788 133.064 27.9545C133.852 27.5227 134.458 26.928 134.882 26.1705C135.306 25.4129 135.518 24.5492 135.518 23.5795V8.72727ZM156.004 15.125C155.898 14.1326 155.451 13.3598 154.664 12.8068C153.883 12.2538 152.868 11.9773 151.618 11.9773C150.739 11.9773 149.985 12.1098 149.357 12.375C148.728 12.6402 148.247 13 147.914 13.4545C147.58 13.9091 147.41 14.428 147.402 15.0114C147.402 15.4962 147.512 15.9167 147.732 16.2727C147.959 16.6288 148.266 16.9318 148.652 17.1818C149.039 17.4242 149.467 17.6288 149.936 17.7955C150.406 17.9621 150.879 18.1023 151.357 18.2159L153.539 18.7614C154.417 18.9659 155.262 19.2424 156.073 19.5909C156.891 19.9394 157.622 20.3788 158.266 20.9091C158.917 21.4394 159.432 22.0795 159.811 22.8295C160.19 23.5795 160.379 24.4583 160.379 25.4659C160.379 26.8295 160.031 28.0303 159.334 29.0682C158.637 30.0985 157.629 30.9053 156.311 31.4886C155.001 32.0644 153.414 32.3523 151.55 32.3523C149.739 32.3523 148.167 32.072 146.834 31.5114C145.508 30.9508 144.47 30.1326 143.72 29.0568C142.978 27.9811 142.576 26.6705 142.516 25.125H146.664C146.724 25.9356 146.974 26.6098 147.414 27.1477C147.853 27.6856 148.425 28.0871 149.129 28.3523C149.842 28.6174 150.637 28.75 151.516 28.75C152.432 28.75 153.235 28.6136 153.925 28.3409C154.622 28.0606 155.167 27.6742 155.561 27.1818C155.955 26.6818 156.156 26.0985 156.164 25.4318C156.156 24.8258 155.978 24.3258 155.629 23.9318C155.281 23.5303 154.792 23.197 154.164 22.9318C153.542 22.6591 152.815 22.4167 151.982 22.2045L149.334 21.5227C147.417 21.0303 145.902 20.2841 144.789 19.2841C143.682 18.2765 143.129 16.9394 143.129 15.2727C143.129 13.9015 143.501 12.7008 144.243 11.6705C144.993 10.6402 146.012 9.84091 147.3 9.27273C148.588 8.69697 150.046 8.40909 151.675 8.40909C153.326 8.40909 154.773 8.69697 156.016 9.27273C157.266 9.84091 158.247 10.6326 158.959 11.6477C159.671 12.6553 160.039 13.8144 160.061 15.125H156.004Z" fill="#FF6636"/>
</svg>
